<?xml version="1.0" standalone="no"?>
<!DOCTYPE svg PUBLIC "-//W3C//DTD SVG 20010904//EN"
 "http://www.w3.org/TR/2001/REC-SVG-20010904/DTD/svg10.dtd">
<svg version="1.0" xmlns="http://www.w3.org/2000/svg"
 width="16.000000pt" height="16.000000pt" viewBox="0 0 16.000000 16.000000"
 preserveAspectRatio="xMidYMid meet">
<metadata>
Created by potrace 1.11, written by Peter Selinger 2001-2013
</metadata>
<g transform="translate(0.000000,16.000000) scale(0.006154,-0.006154)"
fill="#000000" stroke="none">
<path d="M0 1300 l0 -1300 1300 0 1300 0 0 1300 0 1300 -1300 0 -1300 0 0
-1300z m1700 805 c0 -52 1 -55 25 -55 21 0 25 -5 25 -30 l0 -30 65 0 65 0 0
-310 0 -310 -75 0 -75 0 0 -45 0 -45 75 0 75 0 0 -295 0 -295 -60 0 -60 0 0
-30 c0 -27 -3 -30 -30 -30 l-30 0 0 -65 0 -65 -460 0 -460 0 0 830 0 830 460
0 460 0 0 -55z"/>
<path d="M1210 1680 l0 -230 120 0 120 0 0 230 0 230 -120 0 -120 0 0 -230z"/>
<path d="M1210 970 l0 -240 120 0 120 0 0 240 0 240 -120 0 -120 0 0 -240z"/>
</g>
</svg>
